<?xml version="1.0" encoding="UTF-8"?><svg xmlns="http://www.w3.org/2000/svg" xmlns:xlink="http://www.w3.org/1999/xlink" xmlns:svg="http://www.w3.org/2000/svg" xmlns:framexs="urn:framexs" version="1.1" style="background-color: white">
  <g transform="translate(-26.765799,23.345725)">
     <g transform="translate(150, 30)" font-family="HG行書体" font-size="20" id="text">
       	 <text transform="translate(0, 0)">今のお前見たら</text>
       	 <text transform="translate(0, 20)">お前のかーちゃん</text>
       	 <text transform="translate(0, 40)">泣くぞ</text>
    </g>
    <g>
      <path d="m 66.484375,10.507813 h 3.007812 v 0.46875 h -3.007812 z"/>
      <path d="m 70.507812,10.9375 h -0.390625 l 0.390625,-1.0546875 h -0.390625 v -0.859375 h 0.898438 v 0.859375 z"/>
      <path d="m 72.539062,10.9375 h -0.390625 l 0.390625,-1.0546875 h -0.390625 v -0.859375 h 0.898438 v 0.859375 z"/>
      <path d="m 74.179687,5.4296875 h 0.898438 v 0.859375 h -0.898438 z m 0,3.59375 h 0.898438 v 0.859375 L 74.570312,10.9375 h -0.390625 l 0.390625,-1.0546875 h -0.390625 z"/>
      <path d="M 76.601562,3.90625 H 76.210937 V 3.046875 h 0.898438 V 3.90625 l -0.507813,1.171875 h -0.390625 z"/>
      <path d="M 81.679687,3.90625 H 81.289062 V 3.046875 H 82.1875 V 3.90625 l -0.507813,1.171875 h -0.390625 z"/>
      <path d="m 83.28125,3.9453125 0.976562,-1.953125 h 1.09375 l -1.367187,1.953125 z m 3.945312,-1.953125 -1.367187,1.953125 H 85.15625 l 0.976562,-1.953125 z"/>
      <path d="M 91.757812,3.90625 H 91.367187 V 3.046875 h 0.898438 V 3.90625 l -0.507813,1.171875 h -0.390625 z"/>
      <path d="M 93.789062,3.90625 H 93.398437 V 3.046875 h 0.898438 V 3.90625 l -0.507813,1.171875 h -0.390625 z"/>
      <path d="m 99.257812,2.2265625 q 0.781248,0.6640625 1.249998,1.328125 l -0.46875,0.390625 Q 99.492187,3.125 98.867187,2.6171875 Z M 100.39063,1.875 q 0.625,0.5078125 1.21093,1.2890625 L 101.13281,3.59375 Q 100.58594,2.8125 99.960937,2.2265625 Z"/>
      <path d="m 103.86719,3.90625 h -0.39063 V 3.046875 H 104.375 V 3.90625 l -0.50781,1.171875 h -0.39063 z"/>
      <path d="m 105.89844,3.90625 h -0.39063 V 3.046875 h 0.89844 V 3.90625 l -0.50781,1.171875 h -0.39063 z"/>
      <path d="m 107.5,3.9453125 0.97656,-1.953125 h 1.09375 l -1.36718,1.953125 z m 3.94531,-1.953125 -1.36718,1.953125 H 109.375 l 0.97656,-1.953125 z"/>
      <path d="m 116.36719,2.2265625 q 0.78125,0.6640625 1.25,1.328125 l -0.46875,0.390625 Q 116.60156,3.125 115.97656,2.6171875 Z M 117.5,1.875 q 0.625,0.5078125 1.21094,1.2890625 L 118.24219,3.59375 Q 117.69531,2.8125 117.07031,2.2265625 Z"/>
      <path d="m 120.97656,3.90625 h -0.39062 V 3.046875 h 0.89844 V 3.90625 l -0.50782,1.171875 h -0.39062 z"/>
      <path d="m 126.05469,3.90625 h -0.39063 V 3.046875 h 0.89844 V 3.90625 l -0.50781,1.171875 h -0.39063 z"/>
      <path d="m 127.69531,5.4296875 h 0.89844 v 0.859375 h -0.89844 z m 0,3.59375 h 0.89844 v 0.859375 L 128.08594,10.9375 h -0.39063 l 0.39063,-1.0546875 h -0.39063 z"/>
      <path d="m 129.72656,5.4296875 h 0.89844 v 0.859375 h -0.89844 z m 0,3.59375 h 0.89844 v 0.859375 L 130.11719,10.9375 h -0.39063 l 0.39063,-1.0546875 h -0.39063 z"/>
      <path d="m 132.14844,10.9375 h -0.39063 l 0.39063,-1.0546875 h -0.39063 v -0.859375 h 0.89844 v 0.859375 z"/>
      <path d="m 134.17969,10.9375 h -0.39063 l 0.39063,-1.0546875 h -0.39063 v -0.859375 h 0.89844 v 0.859375 z"/>
    </g>
    <g>
      <path d="m 62.148437,14.0625 q 0.429688,-0.898437 1.445313,-1.835937 l 0.429687,0.390625 q -0.976562,0.898437 -1.367187,1.71875 -0.429688,0.898437 -0.429688,2.148437 0,1.054687 0.429688,1.992187 0.390625,0.859375 1.367187,1.914063 L 63.59375,20.820312 Q 62.617187,19.726562 62.148437,18.75 q -0.507812,-1.054688 -0.507812,-2.265625 0,-1.367187 0.507812,-2.421875 z"/>
      <path d="m 66.601562,16.054687 q 0.625,-0.624999 1.679688,-0.624999 v 0.859374 Q 68.125,16.25 67.851562,16.25 q -0.585937,0 -1.09375,0.507812 -0.429687,0.429688 -0.585937,0.898438 v 2.226562 h -0.78125 v -4.374999 h 0.78125 v 1.093749 q 0.195312,-0.3125 0.429687,-0.546875 z"/>
      <path d="M 70.117187,14.257813 Q 73.28125,16.25 74.726562,18.28125 L 73.75,19.101562 Q 72.265625,16.953125 69.296875,15 Z"/>
      <path d="m 76.757812,20.9375 h -0.390625 l 0.390625,-1.054688 h -0.390625 v -0.859375 h 0.898438 v 0.859375 z"/>
      <path d="m 78.398437,15.429688 h 0.898438 v 0.859374 h -0.898438 z m 0,3.593749 h 0.898438 v 0.859375 L 78.789062,20.9375 h -0.390625 l 0.390625,-1.054688 h -0.390625 z"/>
      <path d="m 80.820312,13.90625 h -0.390625 v -0.859375 h 0.898438 v 0.859375 l -0.507813,1.171875 h -0.390625 z"/>
      <path d="m 82.851562,13.90625 h -0.390625 v -0.859375 h 0.898438 v 0.859375 l -0.507813,1.171875 h -0.390625 z"/>
      <path d="m 84.453125,13.945313 0.976562,-1.953125 h 1.09375 l -1.367187,1.953125 z m 3.945312,-1.953125 -1.367187,1.953125 h -0.703125 l 0.976562,-1.953125 z"/>
      <path d="m 89.453125,13.945313 0.976562,-1.953125 h 1.09375 l -1.367187,1.953125 z m 3.945312,-1.953125 -1.367187,1.953125 h -0.703125 l 0.976562,-1.953125 z"/>
      <path d="m 94.453125,13.945313 0.976562,-1.953125 h 1.09375 l -1.367187,1.953125 z m 3.945312,-1.953125 -1.367187,1.953125 h -0.703125 l 0.976562,-1.953125 z"/>
      <path d="m 99.882812,13.90625 h -0.390625 v -0.859375 h 0.898443 v 0.859375 l -0.507818,1.171875 h -0.390625 z"/>
      <path d="m 101.91406,13.90625 h -0.39062 v -0.859375 h 0.89844 v 0.859375 l -0.50782,1.171875 h -0.39062 z"/>
      <path d="m 104.33594,12.226563 q 0.78125,0.664062 1.25,1.328125 l -0.46875,0.390625 Q 104.57031,13.125 103.94531,12.617188 Z M 105.46875,11.875 q 0.625,0.507813 1.21094,1.289063 l -0.46875,0.429687 q -0.54688,-0.78125 -1.17188,-1.367187 z"/>
      <path d="m 109.33594,12.226563 q 0.78125,0.664062 1.25,1.328125 l -0.46875,0.390625 Q 109.57031,13.125 108.94531,12.617188 Z M 110.46875,11.875 q 0.625,0.507813 1.21094,1.289063 l -0.46875,0.429687 q -0.54688,-0.78125 -1.17188,-1.367187 z"/>
      <path d="m 114.33594,12.226563 q 0.78125,0.664062 1.25,1.328125 l -0.46875,0.390625 Q 114.57031,13.125 113.94531,12.617188 Z M 115.46875,11.875 q 0.625,0.507813 1.21094,1.289063 l -0.46875,0.429687 q -0.54688,-0.78125 -1.17188,-1.367187 z"/>
      <path d="m 118.94531,13.90625 h -0.39062 v -0.859375 h 0.89844 v 0.859375 l -0.50782,1.171875 h -0.39062 z"/>
      <path d="m 120.97656,13.90625 h -0.39062 v -0.859375 h 0.89844 v 0.859375 l -0.50782,1.171875 h -0.39062 z"/>
      <path d="m 122.61719,15.429688 h 0.89844 v 0.859374 h -0.89844 z m 0,3.593749 h 0.89844 v 0.859375 l -0.50782,1.054688 h -0.39062 l 0.39062,-1.054688 h -0.39062 z"/>
      <path d="m 125.03906,20.9375 h -0.39062 l 0.39062,-1.054688 h -0.39062 v -0.859375 h 0.89844 v 0.859375 z"/>
      <path d="m 129.57031,19.257812 q 2.26563,-1.875 3.04688,-6.406249 l 0.82031,0.390625 q 0.27344,0.15625 0,0.234375 -0.78125,4.414062 -3.24219,6.601562 z"/>
      <path d="m 134.80469,15.507813 h 0.89843 v 1.093749 q 0.54688,-1.093749 1.60157,-1.093749 h 0.50781 v 0.859374 h -0.46875 q -0.66406,0 -1.09375,0.429688 -0.46875,0.46875 -0.54688,1.015625 v 2.070312 h -0.89843 z"/>
      <path d="m 140.50781,18.75 q -0.46875,0.976562 -1.44531,2.070312 l -0.42969,-0.429687 q 0.97656,-1.054688 1.36719,-1.914063 0.42969,-0.9375 0.42969,-1.992187 0,-1.25 -0.42969,-2.148437 -0.39063,-0.820313 -1.36719,-1.71875 l 0.42969,-0.390625 q 1.01562,0.9375 1.44531,1.835937 0.50781,1.054688 0.50781,2.421875 0,1.210937 -0.50781,2.265625 z"/>
    </g>
    <g>
      <path d="m 60.820312,30.9375 h -0.390625 l 0.390625,-1.054688 h -0.390625 v -0.859375 h 0.898438 v 0.859375 z"/>
      <path d="m 62.460937,25.429687 h 0.898438 v 0.859375 h -0.898438 z m 0,3.59375 h 0.898438 v 0.859375 L 62.851562,30.9375 h -0.390625 l 0.390625,-1.054688 h -0.390625 z"/>
      <path d="m 64.882812,23.90625 h -0.390625 v -0.859375 h 0.898438 v 0.859375 l -0.507813,1.171875 h -0.390625 z"/>
      <path d="m 67.304687,22.226562 q 0.78125,0.664063 1.25,1.328125 l -0.46875,0.390625 Q 67.539062,23.125 66.914062,22.617187 Z M 68.4375,21.875 q 0.625,0.507812 1.210937,1.289062 l -0.46875,0.429688 Q 68.632812,22.8125 68.007812,22.226562 Z"/>
      <path d="m 74.648437,23.242187 h 0.78125 v 1.015625 h -0.78125 z m 0,2.265625 h 0.78125 v 4.375 h -0.78125 z"/>
      <path d="m 79.140625,30.9375 h 9.960937 v 0.429687 h -9.960937 z"/>
      <path d="m 105.35156,30.9375 q -0.9375,-1.054688 -1.95312,-1.71875 l 0.58594,-0.78125 q 1.25,0.742187 2.07031,1.679687 z"/>
      <path d="m 109.0625,30.9375 h 9.96094 v 0.429687 h -9.96094 z"/>
      <path d="m 122.77344,23.242187 h 0.78125 v 1.015625 h -0.78125 z m 0,2.265625 h 0.78125 v 4.375 h -0.78125 z"/>
      <path d="M 126.01563,24.257812 Q 129.17969,26.25 130.625,28.28125 l -0.97656,0.820312 Q 128.16406,26.953125 125.19531,25 Z"/>
      <path d="m 133.04687,22.226562 q 0.78125,0.664063 1.25,1.328125 l -0.46875,0.390625 Q 133.28125,23.125 132.65625,22.617187 Z M 134.17969,21.875 q 0.625,0.507812 1.21093,1.289062 l -0.46875,0.429688 Q 134.375,22.8125 133.75,22.226562 Z"/>
      <path d="m 137.65625,23.90625 h -0.39063 v -0.859375 h 0.89844 v 0.859375 l -0.50781,1.171875 h -0.39063 z"/>
      <path d="m 139.29687,25.429687 h 0.89844 v 0.859375 h -0.89844 z m 0,3.59375 h 0.89844 v 0.859375 L 139.6875,30.9375 h -0.39063 l 0.39063,-1.054688 h -0.39063 z"/>
      <path d="m 141.71875,30.9375 h -0.39063 l 0.39063,-1.054688 h -0.39063 v -0.859375 h 0.89844 v 0.859375 z"/>
    </g>
    <g>
      <path d="m 57.226562,40.9375 h -0.390625 l 0.390625,-1.054688 h -0.390625 v -0.859375 h 0.898438 v 0.859375 z"/>
      <path d="m 58.867187,35.429687 h 0.898438 v 0.859375 h -0.898438 z m 0,3.59375 h 0.898438 v 0.859375 L 59.257812,40.9375 h -0.390625 l 0.390625,-1.054688 h -0.390625 z"/>
      <path d="m 61.289062,33.90625 h -0.390625 v -0.859375 h 0.898438 v 0.859375 l -0.507813,1.171875 h -0.390625 z"/>
      <path d="m 62.890625,33.945312 0.976562,-1.953125 h 1.09375 l -1.367187,1.953125 z m 3.945312,-1.953125 -1.367187,1.953125 h -0.703125 l 0.976562,-1.953125 z"/>
      <path d="M 71.367187,33.90625 H 70.976562 V 33.046875 H 71.875 v 0.859375 l -0.507813,1.171875 h -0.390625 z"/>
      <path d="m 73.398437,33.90625 h -0.390625 v -0.859375 h 0.898438 v 0.859375 l -0.507813,1.171875 h -0.390625 z"/>
      <path d="m 75.234375,31.445312 h 0.78125 v 9.921875 h -0.78125 z"/>
      <path d="M 81.640625,34.257812 Q 84.804687,36.25 86.25,38.28125 l -0.976563,0.820312 Q 83.789062,36.953125 80.820312,35 Z"/>
      <path d="m 90.625,35.546875 v 1.679687 h -1.679688 v -1.679687 z"/>
      <path d="M 93.75,40.898437 93.085937,40.546875 95.46875,36.40625 93.085937,32.265625 93.75,31.914062 96.328125,36.40625 Z"/>
      <path d="m 107.26563,31.914062 0.66406,0.351563 -2.38281,4.140625 2.38281,4.140625 -0.66406,0.351562 -2.57813,-4.492187 z"/>
      <path d="m 112.26563,35.546875 v 1.679687 h -1.67969 v -1.679687 z"/>
      <path d="m 120.27344,33.59375 q -0.82031,2.265625 -1.83594,3.59375 -1.28906,1.679687 -3.08594,2.8125 l -0.9375,-0.742188 q 1.75782,-0.898437 2.96875,-2.34375 1.25,-1.484375 1.95313,-4.101562 l 1.05469,0.46875 q 0.27343,0.15625 -0.11719,0.3125 z"/>
      <path d="m 124.84375,31.445312 h 0.78125 v 9.921875 h -0.78125 z"/>
      <path d="m 127.03125,32.070312 0.78125,1.132813 -0.42969,0.429687 -0.74218,-1.171875 z m 0.78125,-0.390625 0.82031,1.054688 -0.42969,0.429687 -0.78124,-1.09375 z"/>
      <path d="m 130.27344,32.226562 q 0.78125,0.664063 1.25,1.328125 l -0.46875,0.390625 Q 130.50781,33.125 129.88281,32.617187 Z M 131.40625,31.875 q 0.625,0.507812 1.21094,1.289062 l -0.46875,0.429688 q -0.54688,-0.78125 -1.17188,-1.367188 z"/>
      <path d="m 137.53906,32.03125 h 1.17188 l 1.13281,1.796875 h -0.625 z"/>
      <path d="m 142.07031,33.90625 h -0.39062 v -0.859375 h 0.89843 v 0.859375 l -0.50781,1.171875 h -0.39062 z"/>
      <path d="m 143.71094,35.429687 h 0.89843 v 0.859375 h -0.89843 z m 0,3.59375 h 0.89843 v 0.859375 l -0.50781,1.054688 h -0.39062 l 0.39062,-1.054688 h -0.39062 z"/>
      <path d="m 146.13281,40.9375 h -0.39062 l 0.39062,-1.054688 h -0.39062 v -0.859375 h 0.89843 v 0.859375 z"/>
    </g>
    <g>
      <path d="m 57.226562,50.9375 h -0.390625 l 0.390625,-1.054688 h -0.390625 v -0.859375 h 0.898438 v 0.859375 z"/>
      <path d="m 58.867187,45.429687 h 0.898438 v 0.859375 h -0.898438 z m 0,3.59375 h 0.898438 v 0.859375 L 59.257812,50.9375 h -0.390625 l 0.390625,-1.054688 h -0.390625 z"/>
      <path d="m 61.289062,43.90625 h -0.390625 v -0.859375 h 0.898438 v 0.859375 l -0.507813,1.171875 h -0.390625 z"/>
      <path d="m 63.320312,43.90625 h -0.390625 v -0.859375 h 0.898438 v 0.859375 l -0.507813,1.171875 h -0.390625 z"/>
      <path d="m 71.5625,43.945312 0.976562,-1.953125 h 1.09375 l -1.367187,1.953125 z m 3.945312,-1.953125 -1.367187,1.953125 H 73.4375 l 0.976562,-1.953125 z"/>
      <path d="m 76.796875,41.445312 h 0.78125 v 9.921875 h -0.78125 z"/>
      <path d="M 99.726562,50.234375 95.625,43.203125 h 8.24219 z"/>
      <path d="m 121.79688,41.445312 h 0.78125 v 9.921875 h -0.78125 z"/>
      <path d="m 123.98438,42.070312 0.78125,1.132813 -0.42969,0.429687 -0.74219,-1.171875 z m 0.78125,-0.390625 0.82031,1.054688 -0.42969,0.429687 -0.78125,-1.09375 z"/>
      <path d="m 127.22656,42.226562 q 0.78125,0.664063 1.25,1.328125 l -0.46875,0.390625 Q 127.46094,43.125 126.83594,42.617187 Z M 128.35937,41.875 q 0.625,0.507812 1.21094,1.289062 l -0.46875,0.429688 q -0.54687,-0.78125 -1.17187,-1.367188 z"/>
      <path d="m 138.08594,42.03125 h 1.17187 l 1.13281,1.796875 h -0.625 z"/>
      <path d="m 142.61719,43.90625 h -0.39063 v -0.859375 h 0.89844 v 0.859375 l -0.50781,1.171875 h -0.39063 z"/>
      <path d="m 144.25781,45.429687 h 0.89844 v 0.859375 h -0.89844 z m 0,3.59375 h 0.89844 v 0.859375 l -0.50781,1.054688 h -0.39063 l 0.39063,-1.054688 h -0.39063 z"/>
      <path d="m 146.67969,50.9375 h -0.39063 l 0.39063,-1.054688 h -0.39063 v -0.859375 h 0.89844 v 0.859375 z"/>
    </g>
    <g>
      <path d="m 57.226562,60.9375 h -0.390625 l 0.390625,-1.054688 h -0.390625 v -0.859375 h 0.898438 v 0.859375 z"/>
      <path d="m 58.867187,55.429687 h 0.898438 v 0.859375 h -0.898438 z m 0,3.59375 h 0.898438 v 0.859375 L 59.257812,60.9375 h -0.390625 l 0.390625,-1.054688 h -0.390625 z"/>
      <path d="m 61.289062,53.90625 h -0.390625 v -0.859375 h 0.898438 v 0.859375 l -0.507813,1.171875 h -0.390625 z"/>
      <path d="m 63.320312,53.90625 h -0.390625 v -0.859375 h 0.898438 v 0.859375 l -0.507813,1.171875 h -0.390625 z"/>
      <path d="M 79.453125,54.257812 Q 82.617187,56.25 84.0625,58.28125 l -0.976563,0.820312 Q 81.601562,56.953125 78.632812,55 Z"/>
      <path d="m 85.117187,60.9375 h 9.960938 v 0.429687 h -9.960938 z"/>
      <path d="m 99.570312,52.304687 h 0.859378 q 0.39062,0.07813 0.0391,0.3125 v 1.601563 q 0.27344,3.75 3.98438,5.351562 l -0.46875,0.976563 Q 101.28906,59.375 100.15625,56.289062 99.335937,59.21875 96.445312,60.546875 L 95.859375,59.6875 q 3.710937,-1.445313 3.710937,-5.351563 z"/>
      <path d="m 105.11719,60.9375 h 9.96094 v 0.429687 h -9.96094 z"/>
      <path d="m 118.39844,60.078125 4.14062,-7.382813 0.39063,0.234375 -4.14063,7.382813 z"/>
      <path d="m 137.42187,60.9375 h -0.39062 l 0.39062,-1.054688 h -0.39062 v -0.859375 h 0.89844 v 0.859375 z"/>
      <path d="m 139.0625,55.429687 h 0.89844 v 0.859375 h -0.89844 z m 0,3.59375 h 0.89844 v 0.859375 l -0.50782,1.054688 h -0.39062 l 0.39062,-1.054688 h -0.39062 z"/>
      <path d="m 141.48437,53.90625 h -0.39062 v -0.859375 h 0.89844 v 0.859375 l -0.50782,1.171875 h -0.39062 z"/>
      <path d="m 142.53906,60.507812 h 3.00781 v 0.46875 h -3.00781 z"/>
    </g>
    <g>
      <path d="m 50.117187,69.765625 8.515625,-7.109375 0.429688,0.507812 -8.515625,7.109375 z"/>
      <path d="m 61.132812,62.460937 q 0.742188,0.546875 1.210938,1.09375 l -0.429688,0.859375 q -0.585937,-0.703125 -1.171875,-1.25 z m -0.703125,2.304688 q 0.703125,0.585937 1.171875,1.09375 l -0.390625,0.9375 q -0.507812,-0.625 -1.171875,-1.25 z m 4.804688,0.9375 q -1.25,2.734375 -3.945313,4.492187 -0.07813,0.3125 -0.234375,0.03906 l -0.390625,-0.820313 q 2.695313,-1.5625 3.945313,-4.492187 z"/>
      <path d="M 68.4375,70.9375 Q 67.5,69.882812 66.484375,69.21875 l 0.585937,-0.78125 q 1.25,0.742187 2.070313,1.679687 z"/>
      <path d="M 83.632812,64.257812 Q 86.796875,66.25 88.242187,68.28125 l -0.976562,0.820312 Q 85.78125,66.953125 82.8125,65 Z"/>
      <path d="m 91.757812,62.890625 q 1.25,-0.664063 2.539063,-0.664063 1.40625,0 2.539062,0.664063 0.9375,0.546875 1.835938,1.484375 l -0.429688,0.273437 q -1.132812,-1.015625 -1.914062,-1.40625 -0.9375,-0.46875 -2.03125,-0.46875 -1.171875,0 -2.1875,0.46875 -0.820313,0.390625 -1.796875,1.40625 L 89.921875,64.375 q 0.742187,-0.898438 1.835937,-1.484375 z"/>
      <path d="m 101.75781,62.890625 q 1.25,-0.664063 2.53907,-0.664063 1.40625,0 2.53906,0.664063 0.9375,0.546875 1.83594,1.484375 l -0.42969,0.273437 q -1.13281,-1.015625 -1.91406,-1.40625 -0.9375,-0.46875 -2.03125,-0.46875 -1.17188,0 -2.1875,0.46875 -0.82032,0.390625 -1.79688,1.40625 L 99.921875,64.375 q 0.742185,-0.898438 1.835935,-1.484375 z"/>
      <path d="m 112.57813,70.078125 4.14062,-7.382813 0.39063,0.234375 -4.14063,7.382813 z"/>
      <path d="m 137.92969,66.835937 q 0,2.65625 -1.83594,4.140625 l -0.58594,-0.78125 q 1.64063,-1.210937 1.64063,-3.515625 V 62.65625 l 0.74218,0.07813 q 0.39063,0.117187 0.0391,0.273437 z m -3.4375,-3.789062 0.74218,0.07813 q 0.39063,0.07813 0.0391,0.273437 v 4.023438 h -0.78125 z"/>
      <path d="m 145.9375,63.164062 0.42969,-0.507812 8.51562,7.109375 -0.42969,0.507812 z"/>
    </g>
    <g>
      <path d="M 47.34375,71.445312 H 48.125 v 9.921875 h -0.78125 z"/>
      <path d="m 69.375,73.945312 0.976562,-1.953125 h 1.09375 l -1.367187,1.953125 z m 3.945312,-1.953125 -1.367187,1.953125 H 71.25 l 0.976562,-1.953125 z"/>
      <path d="m 74.570312,75.507812 h 0.898438 v 1.09375 q 0.546875,-1.09375 1.601562,-1.09375 h 0.507813 v 0.859375 h -0.46875 q -0.664063,0 -1.09375,0.429688 -0.46875,0.46875 -0.546875,1.015625 v 2.070312 h -0.898438 z"/>
      <path d="m 78.59375,80.9375 h -0.390625 l 0.390625,-1.054688 h -0.390625 v -0.859375 h 0.898437 v 0.859375 z"/>
      <path d="M 80.625,80.9375 H 80.234375 L 80.625,79.882812 h -0.390625 v -0.859375 h 0.898437 v 0.859375 z"/>
      <path d="m 89.179687,72.03125 h 1.40625 L 92.03125,73.75 h -0.898438 z"/>
      <path d="m 93.867187,73.945312 0.976563,-1.953125 h 1.09375 l -1.367188,1.953125 z m 3.945313,-1.953125 -1.367188,1.953125 h -0.703125 l 0.976563,-1.953125 z"/>
      <path d="M 99.296875,73.90625 H 98.90625 v -0.859375 h 0.898437 v 0.859375 l -0.507812,1.171875 H 98.90625 Z"/>
      <path d="m 101.32813,73.90625 h -0.39063 v -0.859375 h 0.89844 v 0.859375 l -0.50781,1.171875 h -0.39063 z"/>
      <path d="m 103.35938,73.90625 h -0.39063 v -0.859375 h 0.89844 v 0.859375 l -0.50781,1.171875 h -0.39063 z"/>
      <path d="m 105.03906,72.070312 0.78125,1.132813 -0.42968,0.429687 -0.74219,-1.171875 z m 0.78125,-0.390625 0.82032,1.054688 -0.42969,0.429687 -0.78125,-1.09375 z"/>
      <path d="m 107.92969,73.75 1.48437,-1.71875 h 1.40625 L 108.82813,73.75 Z"/>
      <path d="m 126.17188,80.9375 h -0.39063 l 0.39063,-1.054688 h -0.39063 v -0.859375 h 0.89844 v 0.859375 z"/>
      <path d="m 128.20312,80.9375 h -0.39062 l 0.39062,-1.054688 h -0.39062 v -0.859375 h 0.89844 v 0.859375 z"/>
      <path d="m 129.84375,77.929687 q 1.83594,0.46875 3.47656,1.367188 l -0.27344,1.054687 q -1.5625,-0.898437 -3.35937,-1.484375 z m 0.19531,-2.539062 q 1.60156,0.46875 2.89063,0.976562 l -0.3125,0.9375 Q 131.32812,76.796875 129.84375,76.25 Z M 130,72.851562 q 1.36719,0.273438 2.85156,0.820313 l -0.23437,1.015625 q -1.40625,-0.546875 -2.77344,-0.898438 z"/>
      <path d="m 135.15625,72.226562 q 0.78125,0.664063 1.25,1.328125 l -0.46875,0.390625 Q 135.39062,73.125 134.76562,72.617187 Z M 136.28906,71.875 q 0.625,0.507812 1.21094,1.289062 l -0.46875,0.429688 q -0.54688,-0.78125 -1.17188,-1.367188 z"/>
      <path d="m 155.89844,71.445312 h 0.78125 v 9.921875 h -0.78125 z"/>
    </g>
    <g>
      <path d="M 47.34375,81.445312 H 48.125 v 9.921875 h -0.78125 z"/>
      <path d="m 85.820312,86.835937 q 0,2.65625 -1.835937,4.140625 l -0.585938,-0.78125 q 1.640625,-1.210937 1.640625,-3.515625 V 82.65625 l 0.742188,0.07813 q 0.390625,0.117187 0.03906,0.273437 z M 82.382812,83.046875 83.125,83.125 q 0.390625,0.07813 0.03906,0.273437 v 4.023438 h -0.78125 z"/>
      <path d="m 89.609375,90.9375 q -0.9375,-1.054688 -1.953125,-1.71875 l 0.585937,-0.78125 q 1.25,0.742187 2.070313,1.679687 z"/>
      <path d="m 120.85938,90.9375 h -0.39063 l 0.39063,-1.054688 h -0.39063 v -0.859375 h 0.89844 v 0.859375 z"/>
      <path d="m 126.17188,86.835937 q 0,2.65625 -1.83594,4.140625 L 123.75,90.195312 q 1.64063,-1.210937 1.64063,-3.515625 V 82.65625 l 0.74218,0.07813 q 0.39063,0.117187 0.0391,0.273437 z m -3.4375,-3.789062 0.74218,0.07813 q 0.39063,0.07813 0.0391,0.273437 v 4.023438 h -0.78125 z"/>
      <path d="m 154.375,81.445312 h 0.78125 v 9.921875 H 154.375 Z"/>
    </g>
    <g>
      <path d="M 47.34375,91.445312 H 48.125 v 9.921878 h -0.78125 z"/>
      <path d="m 69.492187,93.242187 h 0.78125 v 1.015625 h -0.78125 z m 0,2.265625 h 0.78125 v 4.375 h -0.78125 z"/>
      <path d="m 88.632812,92.226562 q 0.78125,0.664063 1.25,1.328125 l -0.46875,0.390625 Q 88.867187,93.125 88.242187,92.617187 Z M 89.765625,91.875 q 0.625,0.507812 1.210937,1.289062 l -0.46875,0.429688 Q 89.960937,92.8125 89.335937,92.226562 Z"/>
      <path d="m 93.007812,95.507812 h 0.898438 v 1.09375 q 0.546875,-1.09375 1.601562,-1.09375 h 0.507813 v 0.859375 h -0.46875 q -0.664063,0 -1.09375,0.429688 -0.46875,0.46875 -0.546875,1.015625 v 2.070312 h -0.898438 z"/>
      <path d="m 98.984375,100.9375 q -0.9375,-1.054688 -1.953125,-1.71875 l 0.585937,-0.78125 q 1.25,0.742187 2.070313,1.67969 z"/>
      <path d="m 103.125,99.257812 q 2.26563,-1.875 3.04688,-6.40625 l 0.82031,0.390625 q 0.27344,0.15625 0,0.234375 -0.78125,4.414063 -3.24219,6.601568 z"/>
      <path d="m 108.59375,100.9375 h -0.39062 l 0.39062,-1.054688 h -0.39062 v -0.859375 h 0.89843 v 0.859375 z"/>
      <path d="m 110.625,100.9375 h -0.39062 l 0.39062,-1.054688 h -0.39062 v -0.859375 h 0.89843 v 0.859375 z"/>
      <path d="m 112.42188,95.507812 h 0.89843 v 1.09375 q 0.54688,-1.09375 1.60157,-1.09375 h 0.50781 v 0.859375 h -0.46875 q -0.66406,0 -1.09375,0.429688 -0.46875,0.46875 -0.54688,1.015625 v 2.070312 h -0.89843 z"/>
      <path d="m 116.01563,93.945312 0.97656,-1.953125 h 1.09375 l -1.36719,1.953125 z m 3.94531,-1.953125 -1.36719,1.953125 h -0.70312 l 0.97656,-1.953125 z"/>
      <path d="m 127.77344,93.242187 h 0.78125 v 1.015625 h -0.78125 z m 0,2.265625 h 0.78125 v 4.375 h -0.78125 z"/>
      <path d="m 149.14062,100.50781 h 3.00782 v 0.46875 h -3.00782 z"/>
      <path d="M 152.96875,91.445312 H 153.75 v 9.921878 h -0.78125 z"/>
    </g>
    <g>
      <path d="M 47.34375,101.44531 H 48.125 v 9.92188 h -0.78125 z"/>
      <path d="m 69.6875,102.03125 h 1.40625 l 1.445312,1.71875 h -0.898437 z"/>
      <path d="m 74.296875,106.79688 v -0.85938 h 8.710937 v 0.85938 z"/>
      <path d="m 83.4375,107.07031 h 9.960937 v 0.74219 H 83.4375 Z"/>
      <path d="m 93.4375,107.07031 h 9.96094 v 0.74219 H 93.4375 Z"/>
      <path d="m 103.71094,106.13281 h 4.45312 v 0.625 h -4.45312 z"/>
      <path d="m 108.71094,106.13281 h 4.45312 v 0.625 h -4.45312 z"/>
      <path d="m 113.71094,106.13281 h 4.45312 v 0.625 h -4.45312 z"/>
      <path d="m 118.71094,106.13281 h 4.45312 v 0.625 h -4.45312 z"/>
      <path d="m 123.4375,106.60156 v -0.42968 h 4.76562 v -4.76563 h 0.42969 v 4.76563 h 4.76563 v 0.42968 z"/>
      <path d="m 138.94531,102.89063 q 1.25,-0.66407 2.53906,-0.66407 1.40625,0 2.53907,0.66407 0.9375,0.54687 1.83593,1.48437 l -0.42968,0.27344 q -1.13282,-1.01563 -1.91407,-1.40625 -0.9375,-0.46875 -2.03125,-0.46875 -1.17187,0 -2.1875,0.46875 -0.82031,0.39062 -1.79687,1.40625 l -0.39063,-0.27344 q 0.74219,-0.89844 1.83594,-1.48437 z"/>
      <path d="m 147.5,103.75 1.48437,-1.71875 h 1.40625 l -1.99218,1.71875 z"/>
      <path d="m 157.1875,108.75 q -0.46875,0.97656 -1.44531,2.07031 l -0.42969,-0.42968 q 0.97656,-1.05469 1.36719,-1.91407 0.42968,-0.9375 0.42968,-1.99218 0,-1.25 -0.42968,-2.14844 -0.39063,-0.82031 -1.36719,-1.71875 l 0.42969,-0.39063 q 1.01562,0.9375 1.44531,1.83594 0.50781,1.05469 0.50781,2.42188 0,1.21093 -0.50781,2.26562 z"/>
    </g>
    <g>
      <path d="m 48.867187,114.0625 q 0.429688,-0.89844 1.445313,-1.83594 l 0.429687,0.39063 q -0.976562,0.89844 -1.367187,1.71875 -0.429688,0.89844 -0.429688,2.14844 0,1.05468 0.429688,1.99218 0.390625,0.85938 1.367187,1.91407 l -0.429687,0.42968 q -0.976563,-1.09375 -1.445313,-2.07031 -0.507812,-1.05469 -0.507812,-2.26562 0,-1.36719 0.507812,-2.42188 z"/>
      <path d="m 53.359375,114.25781 q 3.164062,1.99219 4.609375,4.02344 l -0.976563,0.82031 Q 55.507812,116.95313 52.539062,115 Z"/>
      <path d="m 68.710937,120.9375 h 9.960938 v 0.42969 h -9.960938 z"/>
      <path d="m 78.710937,120.9375 h 9.960938 v 0.42969 h -9.960938 z"/>
      <path d="m 88.710937,120.9375 h 9.960938 v 0.42969 h -9.960938 z"/>
      <path d="m 98.710937,120.9375 h 9.960943 v 0.42969 h -9.960943 z"/>
      <path d="m 108.71094,120.9375 h 9.96094 v 0.42969 h -9.96094 z"/>
      <path d="m 118.71094,120.9375 h 9.96093 v 0.42969 h -9.96093 z"/>
      <path d="m 132.73437,120.9375 h -0.39062 l 0.39062,-1.05469 h -0.39062 v -0.85937 h 0.89844 v 0.85937 z"/>
      <path d="M 134.76562,120.9375 H 134.375 l 0.39062,-1.05469 H 134.375 v -0.85937 h 0.89844 v 0.85937 z"/>
      <path d="m 138.86719,120.9375 h 9.96093 v 0.42969 h -9.96093 z"/>
      <path d="m 149.88281,113.75 1.48438,-1.71875 h 1.40625 l -1.99219,1.71875 z"/>
      <path d="m 156.52344,118.75 q -0.46875,0.97656 -1.44532,2.07031 l -0.42968,-0.42968 q 0.97656,-1.05469 1.36718,-1.91407 0.42969,-0.9375 0.42969,-1.99218 0,-1.25 -0.42969,-2.14844 -0.39062,-0.82031 -1.36718,-1.71875 l 0.42968,-0.39063 q 1.01563,0.9375 1.44532,1.83594 0.50781,1.05469 0.50781,2.42188 0,1.21093 -0.50781,2.26562 z"/>
    </g>
    <g>
      <path d="m 51.914062,124.0625 q 0.429688,-0.89844 1.445313,-1.83594 l 0.429687,0.39063 q -0.976562,0.89844 -1.367187,1.71875 -0.429688,0.89844 -0.429688,2.14844 0,1.05468 0.429688,1.99218 0.390625,0.85938 1.367187,1.91406 l -0.429687,0.42969 q -0.976563,-1.09375 -1.445313,-2.07031 -0.507812,-1.05469 -0.507812,-2.26562 0,-1.36719 0.507812,-2.42188 z"/>
      <path d="m 54.609375,130.50781 h 3.007812 v 0.46875 h -3.007812 z"/>
      <path d="m 60.117187,122.89063 q 1.25,-0.66407 2.539063,-0.66407 1.40625,0 2.539062,0.66407 0.9375,0.54687 1.835938,1.48437 l -0.429688,0.27344 q -1.132812,-1.01563 -1.914062,-1.40625 -0.9375,-0.46875 -2.03125,-0.46875 -1.171875,0 -2.1875,0.46875 -0.820313,0.39062 -1.796875,1.40625 L 58.28125,124.375 q 0.742187,-0.89844 1.835937,-1.48437 z"/>
      <path d="m 70.703125,130.9375 h 9.960937 v 0.42969 h -9.960937 z"/>
      <path d="m 80.703125,130.9375 h 9.960937 v 0.42969 h -9.960937 z"/>
      <path d="m 90.703125,130.9375 h 9.960935 v 0.42969 h -9.960935 z"/>
      <path d="m 100.70313,130.9375 h 9.96093 v 0.42969 h -9.96093 z"/>
      <path d="m 110.70313,130.9375 h 9.96093 v 0.42969 h -9.96093 z"/>
      <path d="m 120.70313,130.9375 h 9.96093 v 0.42969 h -9.96093 z"/>
      <path d="m 134.72656,130.9375 h -0.39062 l 0.39062,-1.05469 h -0.39062 v -0.85937 h 0.89843 v 0.85937 z"/>
      <path d="m 136.75781,130.9375 h -0.39062 l 0.39062,-1.05469 h -0.39062 v -0.85937 h 0.89843 v 0.85937 z"/>
      <path d="m 144.92187,130.78125 h -0.78125 v -3.63281 q -0.85937,0.66406 -2.57812,1.52343 l -0.54688,-0.66406 q 3.71094,-1.79687 5.07813,-3.94531 l 0.66406,0.50781 q 0.23438,0.19532 -0.15625,0.27344 -0.66406,0.82031 -1.67969,1.67969 z"/>
    </g>
    <g>
      <path d="m 69.023437,133.71094 h -3.515625 v 6.17187 q 0,0.625 -0.625,0.625 h -1.09375 l -0.07813,-0.85937 h 0.742188 q 0.15625,0 0.15625,-0.15625 v -5.78125 h -4.023438 v -0.85938 h 8.4375 z"/>
      <path d="m 140.07812,131.44531 h 0.78125 v 9.92188 h -0.78125 z"/>
    </g>
    <g>
      <path d="m 63.671875,141.44531 h 0.78125 v 9.92188 h -0.78125 z"/>
      <path d="m 139.0625,141.44531 h 0.78125 v 9.92188 h -0.78125 z"/>
    </g>
  </g>
</svg>